<?xml version="1.0" encoding="UTF-8"?>
<svg id="Layer_1" data-name="Layer 1" xmlns="http://www.w3.org/2000/svg" viewBox="0 0 1920 621">
  <defs>
    <style>
      .cls-1 {
        fill: none;
        stroke: #225379;
        stroke-miterlimit: 10;
        stroke-width: 5px;
      }

      .cls-2 {
        fill: #225379;
      }

      .cls-2, .cls-3 {
        stroke-width: 0px;
      }

      .cls-3 {
        fill: #fff;
      }
    </style>
  </defs>
  <g>
    <path class="cls-2" d="M566,40.6l8.9-2.6s5.2-1.5,9.2-1.5h0c2.8,0,5.5,1.5,7,3.9l1.8,2.8,212.3,341.3c0,0,3,5,5,9s1.6,3.9-5.5,8.5-269.6,160-317.5,188.5c-7.1,4.2-16.3,2.5-21.3-4.1-.7-1-1.5-2.1-2.2-3.3s0-.2-.1-.3L217.6,169l-10-15s-.8-1.2-1.3-2.7-.2-1.7-.2-2.4,0-.6.1-.9c.2-.5.5-1.2,1.1-1.8s1.5-1,1.8-1.1.1,0,.2,0l1.7-.5"/>
    <path class="cls-2" d="M369.6,456.5l-32.5,17.5c-.6.3-1.4.4-2,.2l-32.9-10.7c-2.2-.7-2.4-3.8-.4-4.8l32.9-16.7c.6-.3,1.3-.4,1.9-.2l32.5,9.9c2.2.7,2.5,3.7.5,4.8Z"/>
    <polygon class="cls-2" points="369.1 440.5 348.1 434.5 360.1 428.5 369.1 440.5"/>
    <path class="cls-2" d="M379.1,460.5l-23.8,14c-2,1.2-1.6,4.1.6,4.8l34.8,10.8c.9.3,2,0,2.6-.7l2.3-2.3c.9-.9,1-2.3.3-3.4l-16.1-23.2h-.6Z"/>
    <path class="cls-2" d="M337,484.1l-35.7,19.9c-2.3,1.3-2,4.7.6,5.6l33,10.5c.8.3,1.7.2,2.4-.3l34.9-19.9c2.3-1.3,1.9-4.7-.6-5.5l-32.2-10.5c-.8-.3-1.7-.2-2.4.2Z"/>
    <path class="cls-2" d="M318.5,484.2l-35.2,19.6c-.8.4-1.7.5-2.5.3l-32.6-9.5c-2.8-.8-3.2-4.5-.7-6l35.4-20.4c.8-.5,1.7-.6,2.6-.3l32.4,10.3c2.7.9,3.1,4.6.6,6Z"/>
    <path class="cls-2" d="M415.3,524.1l-21.9,12.6c-.8.5-1.8.6-2.6.3l-35.4-11.3c-2.7-.9-3.1-4.6-.6-6l35.2-19.6c.8-.4,1.7-.5,2.5-.3l14,4.2c.8.2,1.5.8,1.9,1.5l8.2,14c.9,1.6.4,3.6-1.2,4.5Z"/>
    <path class="cls-2" d="M420.9,531.3l-14,8.6c-1.1.7-.9,2.3.3,2.6l23.3,7c1.3.4,2.3-1,1.7-2.1l-9.3-15.6c-.4-.7-1.3-.9-2-.5Z"/>
    <path class="cls-2" d="M461.6,593.4l-17.7-28c-1.2-1.9-3-3.3-5.1-3.9l-133.7-41-80.3-25.5c-2.3-.7-3.5-3.3-2.5-5.5h0c.4-.9,1.1-1.6,2-2.1l127.6-64.8c2.3-1.2,3.2-4.1,1.9-6.3l-6.4-11.1c-1.2-2.1-3.9-2.9-6.1-1.7l-37.2,19.9c-1.2.7-2.7.7-4,.1l-54.1-24.3c-1.2-.5-2.5-.5-3.7,0l-170.5,76.9c-.5.2-.9.5-1.3.9-1.8,1.8-6.4,7.2,1.1,12.1s.7.4,1.1.5c16,4.9,365.1,111.3,373.3,113.8s.2,0,.3,0c.8.3,4.9,1.8,9.6,1.4s8.8-6.8,5.7-11.6Z"/>
    <path class="cls-2" d="M319.5,363.7l-57.4,27c-2.4,1.1-2.4,4.6,0,5.7l37.6,18.4c.9.5,2,.4,2.9,0l35.6-19.6c1.6-.9,2.1-2.9,1.2-4.4l-15.8-25.7c-.8-1.4-2.6-1.9-4.1-1.2Z"/>
  </g>
  <line class="cls-1" x1="854.6" y1="12.5" x2="854.6" y2="609.5"/>
  <path class="cls-2" d="M975,184.7c-.4,2.9-.5,10.2-1.9,10.8-5,2-8,1.8-11,2l-38,.7c-1.6,0-2.9,1.3-2.9,3v29.6c0,1.3,1,2.3,2.3,2.3,10.6.1,54.7.5,59.8,0s35.8,3.4,35.8-37.6v-103h-43"/>
  <path class="cls-2" d="M1048.3,97.8v128.9c0,1.5.6,2.9,1.7,3.9h0c1,.9,2.3,1.4,3.6,1.4l115.5-.9c3,0,5.3-2.5,5.3-5.5l-.7-23.5c0-2.9-2.4-5.1-5.3-5.1h-71.5c-2.9,0-5.3-2.4-5.3-5.3l.3-93.9c0-2.9-2.4-5.3-5.3-5.3h-32.9c-2.9,0-5.3,2.4-5.3,5.3Z"/>
  <path class="cls-2" d="M1219.3,101v24.4c0,3.1,2.5,5.5,5.5,5.5h37.5c3.1,0,5.5,2.5,5.5,5.5v92.9c0,3.1,2.5,5.5,5.5,5.5h34.8c3.1,0,5.5-2.5,5.5-5.5v-94c0-3.1,2.5-5.6,5.6-5.5h37.7c3.1.1,5.6-2.4,5.6-5.4v-23.4c0-3.1-2.5-5.5-5.5-5.5h-132.2c-3.1,0-5.5,2.5-5.5,5.5Z"/>
  <path class="cls-2" d="M1380,99.4v131.8c0,2.1,1.7,3.9,3.9,3.9h126.8c2.1,0,3.9-1.7,3.9-3.9v-27.5c0-2.1-1.7-3.9-3.9-3.9l-83.1.3c-2.1,0-3.9-1.7-3.9-3.9v-14.2c0-2.1,1.7-3.9,3.9-3.9h61.3c2.1,0,3.9-1.7,3.9-3.9v-24.3c0-2.1-1.7-3.9-3.9-3.9h-61.3c-2.1,0-3.9-1.7-3.9-3.9v-10.3c0-2.1,1.7-3.9,3.9-3.9l83.2-.3c2.1,0,3.9-1.7,3.9-3.9v-24.5c0-2.1-1.7-3.9-3.9-3.9h-126.8c-2.1,0-3.9,1.7-3.9,3.9Z"/>
  <path class="cls-2" d="M1648.3,146h28.2c4.8,0,8.4-4.2,7.7-9-2.2-13.8-12.5-39.3-58-46.8-.8-.1-10.5-.5-14.4-.7s-2.1,0-3.2,0l-15.4.9c-1.2,0-5.3.7-6.4,1-8.8,2.3-44.8,13.9-54.8,52.5-.4,1.6-.8,4.4-.8,6.1v14.5c0,1,0,11,.8,19.3.8,8.7,11.7,48.5,61.3,53.1.3,0,.5,0,.8,0h45.6c.8,0,1.5-.1,2.3-.3,6-1.8,33.2-11.3,42.4-36.7.3-.8.4-1.7.4-2.6v-9.8c0-4.2-3.4-7.7-7.6-7.8l-26.2-.6c-2.6,0-5.1,1.2-6.6,3.4-4.2,6.2-13.6,18.8-22.2,22s-1.8.5-2.7.5h-15.6c-.8,0-1.7-.1-2.5-.4-4.8-1.6-21.4-8.7-25.4-28.1-.2-1-.3-2-.3-3l-.5-10c0-1.8.8-13.7,1.3-15.4,2.2-6.4,9.1-21.7,27.3-25.9s1.2-.2,1.7-.2h10.2c3.4,0,6.3,1.7,9.5,3,6.4,2.7,12.9,8.3,16.3,16.4,1,2.5,4.1,4.6,6.8,4.6Z"/>
  <path class="cls-2" d="M1706.6,101.8v128.6c0,2.7,2.2,4.8,4.8,4.8h35.8c2.7,0,4.8-2.2,4.8-4.8v-44.4c0-2.6,2.1-4.8,4.8-4.8l46-.3c2.7,0,4.8,2.1,4.8,4.8v43.3c0,2.7,2.1,4.8,4.8,4.8h35.4c2.7,0,4.8-2.1,4.8-4.8v-127.4c0-2.7-2.2-4.8-4.8-4.8h-35c-2.6,0-4.8,2.1-4.8,4.8l-.3,40.5c0,2.6-2.2,4.8-4.8,4.8h-46.5c-2.6,0-4.8-2.1-4.8-4.8l-.3-40.5c0-2.6-2.2-4.8-4.8-4.8h-35c-2.7,0-4.8,2.2-4.8,4.8Z"/>
  <path class="cls-2" d="M934.6,356.5v28.7c0,1.9,1.6,3.5,3.5,3.5h64.2c3.2,0,4.7,3.9,2.4,6.1l-69,65.2c-.7.7-1.1,1.6-1.1,2.6v26.4c0,2,1.6,3.5,3.5,3.5l131-1.4c1.9,0,3.5-1.6,3.5-3.5v-24.6c0-1.9-1.6-3.5-3.5-3.5l-67.2-.4c-3.2,0-4.7-3.9-2.4-6.1l72-67.8c.7-.7,1.1-1.6,1.1-2.6v-26.1c0-1.9-1.6-3.5-3.5-3.5h-131c-1.9,0-3.5,1.6-3.5,3.5Z"/>
  <path class="cls-2" d="M1152.6,350s-50.7,1.8-63.4,51.1c-1.1,4.4-1.6,8.9-1.6,13.4v20.5s0,46.7,57.7,60.4c4.7,1.1,9.6,1.6,14.5,1.5l23.5-.7c4.8-.1,9.5-.9,14.1-2.2,12-3.6,33.4-12.8,45-34.7,4.1-7.8,6.2-16.6,6.2-25.5v-22.9c0-12.3-4-24.4-11.6-34.1-7-8.9-17.9-18.1-35-23.9s-11.6-2.8-17.5-2.8h-31.8Z"/>
  <path class="cls-3" d="M1142.2,392.1c-3.5,3.8-6.9,8.9-8.7,15.5-.6,2.3-.9,4.8-.9,7.2v20.1s0,9.3,11.6,19.9c5.4,5,12.6,7.7,19.9,7.7h9.4c9.5,0,18.6-4.5,24.1-12.3,1.9-2.8,3.6-6.1,4.8-10.2s1.2-5.5,1.2-8.3v-19.2c0-5.5-1.5-11-4.5-15.7s-1-1.5-1.6-2.3c-5.5-7.4-14.3-11.6-23.5-11.6h-10.4c-8.1,0-15.9,3.2-21.4,9.1Z"/>
  <path class="cls-2" d="M1272.6,358.4v130.8c0,2.4,2,4.4,4.4,4.4h39.1c2.4,0,4.4-2,4.4-4.4v-60.9c0-4.3,5.5-6,8-2.5l45.9,66.3c.8,1.2,2.2,1.9,3.6,1.9h39.6c2.4,0,4.4-2,4.4-4.4l-1-131.3c0-2.4-2-4.3-4.4-4.3h-35.9c-2.4,0-4.4,2-4.4,4.4l.3,60.2c0,4.3-5.6,6.1-8,2.5l-44-65.1c-.8-1.2-2.2-1.9-3.6-1.9h-44c-2.4,0-4.4,2-4.4,4.4Z"/>
  <path class="cls-2" d="M1449.2,358.4v131.3c0,2.4,2,4.4,4.4,4.4h127.5c2.4,0,4.4-1.9,4.4-4.4v-28.3c.1-2.4-1.8-4.4-4.3-4.4h-81.2c-2.4,0-4.4-2-4.4-4.4v-10.3c0-2.4,2-4.4,4.4-4.4h60.1c2.5,0,4.4-2,4.4-4.5l-.7-25.3c0-2.4-2-4.2-4.4-4.2h-60.4c-2.4,0-4.4-2-4.4-4.4v-8.3c0-2.4,2-4.4,4.4-4.4h82.3c2.4,0,4.4-2,4.4-4.4v-24.2c0-2.4-2-4.4-4.4-4.4h-127.7c-2.4,0-4.4,2-4.4,4.4Z"/>
</svg>