<?xml version="1.0" encoding="UTF-8"?>
<svg id="Layer_1" data-name="Layer 1" xmlns="http://www.w3.org/2000/svg" viewBox="0 0 1032 1073">
  <defs>
    <style>
      .cls-1 {
        fill: #225379;
        stroke-width: 0px;
      }
    </style>
  </defs>
  <path class="cls-1" d="M685.9,160.7l11.9-3.5s7-2,12.4-2h0c3.8,0,7.4,2,9.4,5.2l2.4,3.8,284.7,457.7c0,.1,4,6.7,6.7,12.1s2.2,5.2-7.4,11.4c-11.4,7.4-361.6,214.5-425.8,252.8-9.5,5.7-21.9,3.4-28.6-5.5s-2-2.8-2.9-4.4-.1-.2-.2-.4L218.7,332.9l-13.4-20.1s-1.1-1.5-1.8-3.6-.2-2.2-.2-3.3,0-.8.2-1.2c.2-.7.7-1.6,1.5-2.4s2.1-1.3,2.4-1.5.2,0,.3,0l2.3-.7"/>
  <path class="cls-1" d="M422.5,718.5l-43.6,23.5c-.8.5-1.8.5-2.7.2l-44.2-14.4c-3-1-3.3-5-.5-6.4l44.2-22.4c.8-.4,1.7-.5,2.6-.2l43.6,13.3c3,.9,3.4,5,.6,6.4Z"/>
  <polygon class="cls-1" points="421.9 697.1 393.7 689 409.8 681 421.9 697.1"/>
  <path class="cls-1" d="M435.3,723.9l-32,18.7c-2.7,1.6-2.2,5.5.7,6.4l46.6,14.4c1.3.4,2.6,0,3.5-.9l3.1-3.1c1.2-1.2,1.4-3.1.4-4.5l-21.6-31.1h-.9Z"/>
  <path class="cls-1" d="M378.7,755.6l-47.9,26.7c-3.1,1.7-2.6,6.4.8,7.4l44.3,14c1.1.3,2.3.2,3.3-.3l46.8-26.7c3.1-1.8,2.6-6.3-.8-7.4l-43.2-14c-1.1-.4-2.3-.2-3.2.3Z"/>
  <path class="cls-1" d="M354,755.7l-47.2,26.3c-1,.6-2.2.7-3.4.4l-43.8-12.7c-3.7-1.1-4.3-6.1-1-8l47.5-27.4c1.1-.6,2.3-.8,3.5-.4l43.5,13.8c3.7,1.2,4.2,6.1.8,8Z"/>
  <path class="cls-1" d="M483.8,809.3l-29.4,16.9c-1.1.6-2.4.8-3.5.4l-47.5-15.1c-3.7-1.2-4.2-6.2-.8-8l47.2-26.3c1-.6,2.3-.7,3.4-.4l18.7,5.7c1.1.3,2,1,2.5,2l11,18.8c1.2,2.1.5,4.8-1.6,6Z"/>
  <path class="cls-1" d="M491.3,818.8l-18.8,11.5c-1.4.9-1.1,3,.5,3.5l31.3,9.4c1.7.5,3.1-1.3,2.2-2.8l-12.5-20.9c-.6-.9-1.8-1.2-2.7-.7Z"/>
  <path class="cls-1" d="M545.9,902.1l-23.7-37.5c-1.6-2.5-4-4.4-6.9-5.3l-179.4-55-107.7-34.2c-3.1-1-4.6-4.4-3.4-7.4h0c.5-1.2,1.4-2.2,2.6-2.8l171.1-86.9c3.1-1.6,4.3-5.5,2.5-8.5l-8.6-14.8c-1.6-2.8-5.2-3.9-8.1-2.3l-49.9,26.7c-1.7.9-3.6,1-5.4.2l-72.6-32.5c-1.6-.7-3.4-.7-5,0l-228.7,103.1c-.6.3-1.2.7-1.7,1.1-2.5,2.4-8.6,9.7,1.5,16.2s.9.5,1.5.7c21.5,6.6,489.7,149.3,500.7,152.6.1,0,.2,0,.4.1,1,.4,6.5,2.4,12.9,1.9,7.6-.5,11.8-9.1,7.7-15.6Z"/>
  <path class="cls-1" d="M355.4,594.1l-77,36.2c-3.2,1.5-3.3,6.1,0,7.7l50.4,24.6c1.2.6,2.7.6,3.9,0l47.8-26.3c2.1-1.2,2.8-3.9,1.6-6l-21.2-34.5c-1.1-1.8-3.5-2.6-5.4-1.6Z"/>
</svg>